<?xml version="1.0" encoding="utf-8"?>
<!DOCTYPE svg PUBLIC "-//W3C//DTD SVG 1.0//EN" "http://www.w3.org/TR/2001/REC-SVG-20010904/DTD/svg10.dtd">
<svg version="1.0" xmlns="http://www.w3.org/2000/svg" width="359px" height="437px" viewBox="0 0 359 437"
     preserveAspectRatio="xMidYMid meet">
    <g>
        <path d="M0 218.5 l0 -218.5 179.5 0 179.5 0 0 218.5 0 218.5 -179.5 0 -179.5 0 0 -218.5z m267 117.2 c0 -3.3 -5.5 -16.9 -9.7 -24.2 -5.1 -8.9 -17.1 -25.1 -23.9 -32.3 -2.4 -2.6 -4.4 -5.5 -4.4 -6.4 0 -1 -1.2 -1.9 -3.2 -2.3 -9.3 -1.8 -15.8 -4.7 -19.2 -8.6 -3.6 -3.9 -3.6 -3.9 -3.6 -13.4 0 -11.4 1.3 -14.9 9.7 -24.9 l5.6 -6.8 -5.3 2.7 c-6.4 3.2 -16.4 5.5 -24.7 5.5 -6.2 0 -6.3 -0.1 -6.3 -2.7 0 -1.4 -0.3 -2.3 -0.7 -1.9 -0.5 0.4 -1.1 12.6 -1.4 27 -0.7 29.7 -0.3 28.3 -9.2 35.4 l-5.4 4.3 -1.7 12.2 c-2 15.1 -2.1 19.7 -0.3 19.7 0.8 0 2.2 0.9 3.2 2 0.9 1 4 2.7 6.9 3.6 4.6 1.6 6.9 1.6 25.1 0.5 24.6 -1.4 37.8 -0.4 50.7 3.9 4.8 1.6 10.5 4.1 12.5 5.4 4.4 2.9 5.3 3.1 5.3 1.3z m-197 -44.7 c2.5 -2.5 2.5 -3.2 0.1 -5.4 -3.9 -3.6 -8.5 0.6 -5.6 5 1.9 2.9 2.9 3 5.5 0.4z m220 -18 c0 -1.3 -1.9 -2.2 -3 -1.5 -1.4 0.9 0 3.4 1.6 2.8 0.8 -0.3 1.4 -0.9 1.4 -1.3z m-193.2 -28.5 c3.6 -2.4 7.2 -6.2 9.6 -10.2 1.5 -2.7 -1.2 -1.1 -6.7 3.8 -6.6 5.8 -9.8 6.7 -17.7 4.6 -5.6 -1.4 -13 -1.2 -13 0.4 0 1.4 5 4.2 9.8 5.4 5.7 1.5 11.8 0.1 18 -4z m53.4 -19.7 c-0.2 -11.6 -0.6 -14.8 -1.6 -14.8 -0.8 0 -2.8 -1.6 -4.5 -3.5 l-3.1 -3.5 -3.9 1.9 c-8.3 4.3 -6.5 18.7 3.6 28.2 3 2.9 9.8 7.4 9.8 6.6 0 -0.1 -0.1 -6.8 -0.3 -14.9z m-57.9 -4.2 c4.4 -2.6 12.3 -10.3 11.4 -11.2 -0.8 -0.9 -5.3 1.4 -10.2 5.2 -4.4 3.3 -5.7 3.8 -10.5 3.8 -3 0 -8.5 -0.8 -12.2 -1.8 -3.7 -1 -7.4 -1.6 -8.4 -1.2 -1.6 0.6 -1.6 0.8 0.1 2.6 5.7 6.3 21.2 7.6 29.8 2.6z m-1.3 -26.2 c2.7 -1.5 5.9 -3.8 7.2 -5.1 l2.3 -2.5 -3.9 1.6 c-2.2 0.9 -5.5 2.8 -7.2 4.1 -5.1 3.9 -11.2 4.3 -16.5 1.2 -8.6 -5 -16.6 -5.5 -9.8 -0.6 8 5.7 18.9 6.2 27.9 1.3z m214.2 -18.1 c2.4 -2.1 2.3 -3.8 -0.4 -5.7 -3.9 -2.8 -7.9 1.3 -5.2 5.3 1.8 2.5 3.1 2.6 5.6 0.4z m-217.1 -5 c2.6 -1.4 6.4 -4.3 8.5 -6.5 l3.9 -3.9 -4 1.6 c-2.2 0.9 -5.6 2.9 -7.5 4.4 -1.9 1.5 -4.3 3 -5.2 3.4 -1 0.3 -1.8 1.1 -1.8 1.7 0 1.6 -5.8 1.2 -8.5 -0.6 -3.4 -2.2 -11.3 -4.5 -12 -3.4 -0.6 1 3.3 3.3 9.4 5.6 4.7 1.8 11.4 0.9 17.2 -2.3z m153.6 -5.5 c-0.2 -1.8 -0.4 -0.4 -0.4 3.2 0 3.6 0.2 5 0.4 3.3 0.2 -1.8 0.2 -4.8 0 -6.5z m-103.3 -13.7 c0.3 -0.5 -0.1 -1.4 -0.8 -2 -1.6 -1.3 -3.2 0.2 -2.1 1.9 0.8 1.2 2.2 1.3 2.9 0.1z m-58.9 -1 c-1.6 -0.3 -5 -1.8 -7.5 -3.2 -2.5 -1.5 -5.8 -3 -7.4 -3.3 -2.6 -0.6 -2.8 -0.5 -1.7 0.8 2.4 2.9 11.3 6.6 15.5 6.5 3.8 -0.2 3.9 -0.2 1.1 -0.8z m10.3 -4.5 c1.3 -1.1 2.8 -2.9 3.4 -3.9 0.8 -1.6 0.7 -1.7 -0.9 -0.9 -1 0.6 -2.9 2.2 -4.2 3.6 -1.4 1.4 -3 2.6 -3.8 2.6 -0.7 0 -1.3 0.7 -1.3 1.5 0 1.3 0.4 1.4 2.3 0.4 1.2 -0.6 3.3 -2.1 4.5 -3.3z m142.8 -16.9 c6.8 -5 9.9 -8.8 14.3 -17.4 4.3 -8.7 6.1 -17 6.1 -29.4 0 -8.5 0.3 -10.9 1.6 -12 3.3 -2.7 6.7 -11.3 7.2 -18 0.4 -5.6 0.1 -7.5 -2 -12 -1.4 -3 -3.7 -6.8 -5.2 -8.6 -3.5 -4.1 -13.8 -9.3 -18.6 -9.3 -3.1 0 -16 3.6 -16 4.5 0 0.2 2.3 1.7 5 3.4 2.8 1.7 7.1 5.1 9.5 7.6 3.6 3.6 4.5 5.1 4.5 8 0 3.2 -0.3 3.5 -2.9 3.5 -1.6 0 -6.6 -2 -11.2 -4.4 -11.4 -6 -20.5 -8.6 -32 -9.3 -9 -0.5 -10.4 -0.4 -19.9 2.7 -21.2 6.8 -34.3 22.2 -34.4 40.5 -0.1 6.1 0.4 7.8 3.3 13.2 1.8 3.4 4.1 6.9 5.1 7.8 1.6 1.4 1.6 1.2 0.9 -3.2 -0.4 -2.7 -0.8 -6.3 -0.8 -8 -0.1 -3.1 0.1 -3.3 3.1 -3.3 1.8 0 6.9 1.8 11.3 4 4.4 2.2 9.7 4.2 11.8 4.6 l3.7 0.6 0 -4.1 c0 -3.9 0.2 -4.1 2.9 -4.1 1.6 0 7.1 2 12.3 4.5 8.9 4.3 24 8.5 31.1 8.5 2.4 0 2.7 0.4 2.7 3.3 0 3.7 -2.3 6.3 -7.7 9.1 -1.8 0.9 -3.3 2.1 -3.3 2.7 0 0.5 2 2.2 4.5 3.7 4.1 2.5 4.5 3 4.5 6.7 0 4.7 0.9 8.5 2 8.5 0.4 0 3.4 -1.9 6.6 -4.3z m56.6 -4.7 l0.3 -4.5 5.3 -0.9 c2.8 -0.5 5.2 -1.3 5.2 -1.7 0 -0.5 -2.4 -0.9 -5.2 -1.1 l-5.3 -0.3 -0.3 -5.2 c-0.2 -2.9 -0.7 -5.3 -1.2 -5.3 -0.5 0 -1 2.4 -1.2 5.3 l-0.3 5.2 -5.2 0.3 c-2.9 0.2 -5.3 0.7 -5.3 1.2 0 0.5 2.4 1.2 5.3 1.7 l5.2 0.8 0.3 5.4 c0.4 6.3 1.9 5.7 2.4 -0.9z m-207.1 1.6 c3.3 -2.3 6.9 -7.8 6.9 -10.5 0 -0.6 -1.9 -1.1 -4.5 -1.1 -3.5 0 -5 -0.6 -7.1 -2.7 -2.6 -2.5 -2.7 -2.6 -4 -0.8 -0.8 1 -1.4 2.7 -1.4 3.8 0 3.5 -1.9 5.7 -5.1 5.7 -2.9 0 -2.9 0.1 -1.4 2.4 1.9 2.8 7 5.5 10.5 5.6 1.4 0 4.2 -1.1 6.1 -2.4z"/>
    </g>
    <g fill="#CCCCCC">
        <path d="M186 393.5 c-8.2 -1.3 -24.7 -5.3 -30.1 -7.4 -1.5 -0.5 -6.5 -0.8 -11.1 -0.6 -16.5 0.7 -43.9 -3.9 -56.3 -9.5 -2.2 -1 -5.8 -2.5 -8 -3.4 -8.7 -3.7 -19.3 -10.9 -27 -18.6 -4.4 -4.3 -7.7 -8.2 -7.3 -8.5 0.3 -0.3 4.2 3 8.8 7.5 4.5 4.4 8.8 8 9.5 8 0.7 0 1.8 0.7 2.5 1.5 2 2.4 12.9 8.2 20.6 11 8.7 3.2 26.3 7.5 32.9 8.2 2.8 0.3 7.9 0.8 11.4 1.2 3.5 0.4 7.8 0.5 9.5 0.1 l3.1 -0.6 -3.5 -1.4 c-1.9 -0.7 -3.7 -1.4 -4 -1.5 -1.5 -0.5 -7 -2.9 -19.5 -8.4 -17.7 -7.9 -37.7 -19.1 -34 -19.1 0.4 0 4.4 2 8.9 4.5 4.6 2.5 9 4.5 10 4.5 0.9 0 1.6 0.4 1.6 0.9 0 1.4 19 10.3 34 15.9 11.6 4.4 25.9 8.4 43 12.3 30.3 6.8 58.5 0.7 74.5 -16.3 7.3 -7.7 12.3 -16.9 13.2 -24.6 l0.5 -4.9 -6.9 -4.6 c-14.7 -9.8 -33.8 -13.5 -59.8 -11.6 -25.8 1.9 -33.5 1.1 -39.2 -4.3 -2.1 -1.9 -2.3 -2 -2.9 -0.4 -0.4 1 -0.4 6.9 0 13.2 0.5 7.7 0.3 11.4 -0.4 11.4 -1 0 -1.4 -11.4 -1 -30.6 l0.2 -9.1 -5.3 -0.7 c-6.5 -0.9 -32 -0.6 -51 0.5 -21.3 1.3 -44.7 4.9 -49.2 7.5 -0.9 0.6 -0.9 0.4 0.1 -0.8 2.4 -3 22.7 -7 42.7 -8.4 8 -0.5 10.6 -1.1 13 -2.8 3.6 -2.7 10 -6.2 13.7 -7.5 1.8 -0.7 4 -3.3 6.7 -7.9 4.4 -7.6 14.4 -21.5 19.7 -27.5 2.8 -3 3.4 -4.5 3.4 -8.1 0 -5.6 -1.5 -9.6 -3.5 -9.6 -2.8 0 -8.9 -3.7 -12.6 -7.7 -7.1 -7.4 -9.9 -16.6 -7.8 -26.1 1.1 -5.2 1.2 -5.3 7.7 -8.7 12.7 -6.5 16.4 -9.5 18.2 -15 5.1 -15.9 14.1 -25 30 -30.4 3.6 -1.3 7.9 -3.1 9.7 -4.2 4.5 -2.8 8.5 -11.3 8.1 -17.1 l-0.3 -4.4 -12 4.7 c-10.6 4.3 -12.4 4.7 -16 3.9 -5.4 -1.2 -13.5 -10 -18.2 -20 -2 -4.1 -4.3 -7.9 -5.1 -8.4 -4.1 -2.4 -9.3 -8.2 -12.3 -13.8 -3.2 -6 -3.4 -6.8 -3.4 -16.3 0.1 -7.9 0.5 -11.1 2.3 -15.5 5.4 -13.4 16.2 -22.9 32.1 -28 9.9 -3.2 10.7 -3.2 22.9 -2.7 14.8 0.6 22.3 2.6 34.9 9.2 7.4 3.9 8.1 4.1 6.7 1.9 -2.3 -3.5 -10.7 -9.9 -16.5 -12.6 -2.6 -1.3 -4.8 -2.8 -4.9 -3.4 -0.1 -3.2 13.2 -8.3 22.5 -8.5 5.5 -0.2 7.5 0.3 12.9 3 11.1 5.4 16.7 14.7 16.7 27.4 0 4.1 -0.3 8.7 -0.7 10.3 -1 4 -4.9 11.8 -6.8 13.3 -1.3 1.1 -1.6 3.5 -1.6 12 0 5.8 -0.7 13.4 -1.5 16.9 -3.5 14.7 -13.4 28.1 -24.9 33.7 -5 2.5 -5.6 3.1 -5.6 5.9 l0 3.1 11.1 -0.3 c12.8 -0.4 15.3 0.3 20.4 5.9 4.8 5.3 9 14.1 14.2 29.4 4.7 13.8 13.8 48.3 14.9 56.3 l0.6 4.8 -14.3 13.5 c-7.9 7.4 -15.7 14.5 -17.2 15.6 l-2.8 2.2 8.8 4.3 c6.8 3.3 10.5 6 16.3 11.8 8.4 8.4 11.7 14.1 13.3 23.4 2.1 12.6 -3.2 24.7 -12.9 29.6 -4.9 2.4 -5.1 2.7 -6.3 8.5 -4.1 19.5 -20.1 35 -43.6 42.2 -6.7 2.1 -29.5 2.5 -40.5 0.8z m89.1 -52.9 c4 -1.7 7.9 -5.6 10.5 -10.6 1.4 -2.6 1.9 -5.7 1.9 -12 0 -7.7 -0.3 -9.2 -3.4 -15.5 -4.2 -8.5 -13.3 -17.7 -21.7 -22.2 -9 -4.8 -30.4 -11.5 -30.4 -9.6 0 0.4 2 2.9 4.4 5.5 6.8 7.2 18.8 23.4 23.9 32.3 5.3 9.1 9.4 20.4 10.4 28.2 0.3 2.9 0.7 5.3 0.8 5.3 0.1 0 1.8 -0.6 3.6 -1.4z m-139.8 -35.5 l9.8 -0.1 -0.7 -3.5 c-0.7 -4 -1.1 -3.6 14.2 -14.9 5.6 -4 11.7 -8.9 13.6 -10.9 3.2 -3.2 3.5 -4.1 4.1 -11.2 0.4 -4.3 0.7 -15.6 0.7 -25.2 0 -16.7 0.1 -17.9 2.9 -26.1 6.8 -19.8 6.4 -43.4 -0.7 -48.8 -3.7 -2.9 -7.6 -1.7 -12.6 3.6 -8.8 9.4 -12.1 20.4 -13.2 43 -0.6 12.4 0.7 43.7 2.2 53.1 0.4 2.6 0.3 3.9 -0.5 3.9 -0.6 0 -1.1 -1.1 -1.1 -2.4 0 -5.5 -1 -5.9 -4.6 -1.9 -5.1 5.6 -12.1 15.4 -17.6 24.6 -4.2 7 -5.5 8.4 -9.6 10.2 -6.3 2.8 -11.3 6 -10.5 6.8 0.3 0.4 3.6 0.5 7.2 0.3 3.6 -0.2 11 -0.4 16.4 -0.5z m24.9 -5.1 c0.3 -3 0.9 -7.2 1.2 -9.3 l0.6 -3.7 -8 5.2 c-8.1 5.4 -8.8 6.5 -7 11.3 0.9 2.4 1.3 2.6 6.7 2.3 l5.8 -0.3 0.7 -5.5z m92.9 -31 c2.4 -1.6 10.2 -8.8 17.4 -15.9 l12.9 -13 -1.3 -6.3 c-5 -24.8 -15.5 -59.6 -21.6 -71.8 -4.9 -9.7 -8.9 -13.5 -14.8 -14.4 -2.7 -0.4 -5.1 -0.6 -5.3 -0.3 -0.3 0.2 0.6 2.6 1.8 5.3 2 4.3 2.3 6.4 2.2 17.4 0 10.4 -0.4 13.4 -2.2 18 -1.2 3 -2.2 6.1 -2.2 6.9 0 1.7 6.6 11 16.4 22.9 4.2 5.2 7.6 9.7 7.6 10 0 0.4 -3 4.1 -6.6 8.2 -7.4 8.5 -22.8 30.9 -21.9 31.9 0.5 0.5 10.6 3.7 12.6 4 0.3 0.1 2.5 -1.2 5 -2.9z m-19.5 -3.1 c1 -1.1 2.7 -3.5 3.9 -5.4 5.8 -9.6 12.4 -18.8 18.2 -25.2 4.1 -4.6 6.2 -7.7 5.7 -8.5 -0.4 -0.7 -2.8 -3.7 -5.2 -6.6 -2.5 -2.9 -7.3 -8.9 -10.6 -13.4 -3.4 -4.5 -6.6 -8.3 -7.2 -8.5 -0.6 -0.2 -1.5 0.7 -2.1 1.9 -1.4 3.2 -11.9 16.8 -19.7 25.6 -8.3 9.5 -10.6 14.3 -10.6 22.7 0 6 0.2 6.8 3.6 10.4 3.3 3.7 9.2 6.5 17.9 8.4 3.6 0.8 4.2 0.7 6.1 -1.4z m-35.5 -45.3 c15.6 -3.3 27.4 -12.8 35 -28 l4.4 -8.9 0 -14.1 c0 -12.1 -0.3 -14.7 -2 -18.1 -1.9 -3.9 -2.1 -4 -7.2 -4 -2.8 0 -5.3 -0.2 -5.6 -0.5 -0.5 -0.5 -1.6 -13.5 -1.7 -19.6 0 -2.5 -0.7 -3.4 -3.6 -5 -2 -1 -4.9 -3.7 -6.4 -5.8 l-2.9 -3.9 5.7 -2.7 c3.1 -1.5 6.6 -3.7 7.6 -4.9 1.9 -2.1 1.9 -2.1 -1 -2.1 -7.1 0 -22.2 -4.1 -31.1 -8.4 -5.1 -2.5 -9.3 -4.1 -9.3 -3.5 0 0.5 0.6 2.5 1.4 4.4 1.3 3.1 1.3 3.4 -0.2 3.7 -3.4 0.7 -17.8 -3.4 -24 -6.7 -3.4 -1.9 -6.5 -3.5 -6.7 -3.5 -1.5 0 3.8 21.7 6.7 27.4 4 7.9 9.1 14.8 12.8 17.3 3.1 2 4.6 2.3 8.1 1.9 5.1 -0.6 14.4 -3.8 21.2 -7.2 2.7 -1.3 5.1 -2.4 5.3 -2.4 0.8 0 0.3 8.5 -0.7 13 -1.7 7.6 -5.1 11.6 -13.2 15.6 -3.9 2 -7.4 3.8 -7.6 4 -0.2 0.2 0.8 1.7 2.2 3.3 4.4 5.2 5.2 9.4 5.1 25.1 0 12.7 -0.4 15.6 -2.7 23.3 -1.5 4.8 -2.7 9.4 -2.7 10.2 0 1.9 4.3 1.9 13.1 0.1z m-45.9 -19.8 c0.2 -3.5 0.3 -6.4 0.2 -6.6 -0.2 -0.4 -8.4 4.9 -8.4 5.4 0 0.8 6.3 7.4 7 7.4 0.5 0 1 -2.8 1.2 -6.2z"/>
        <path d="M65.3 296.3 c-2.5 -0.5 -6.3 -5.2 -6.3 -7.7 0 -6.1 7.5 -10.5 12.5 -7.2 3.9 2.5 5.1 5.8 3.5 9.6 -1 2.5 -5.9 6.5 -7.2 5.9 -0.2 -0.1 -1.3 -0.4 -2.5 -0.6z"/>
        <path d="M286 278.3 c-2.1 -0.8 -3.9 -3.4 -4 -5.5 0 -2.4 3.5 -5.8 6 -5.8 2.6 0 6 3.4 6 6 0 2 -3.7 6.1 -5.4 5.9 -0.6 0 -1.8 -0.3 -2.6 -0.6z"/>
        <path d="M101.7 268.8 c-0.9 -1.2 -3.3 -5.7 -5.4 -9.8 -2.6 -5.1 -4.3 -7.4 -5.3 -7.1 -0.8 0.3 -4.4 0.5 -8 0.5 -7.3 0 -13.3 -2.3 -19 -7.2 -4.5 -3.9 -3.6 -4.8 6 -6.3 6.2 -1 8.5 -0.9 13.3 0.3 3.1 0.8 5.7 1.2 5.7 0.9 0 -0.3 -0.8 -3.3 -1.8 -6.6 l-1.8 -6 -6.5 -0.2 c-8.8 -0.2 -16.8 -3.3 -21.4 -8.4 -4.4 -4.9 -3.9 -5.9 4.2 -6.6 5.2 -0.5 13.5 0.9 19.5 3.2 1.6 0.6 1.7 0.2 1.1 -4.1 -1.3 -10 -1.2 -9.8 -8.6 -10.6 -7.9 -0.8 -14 -3.9 -18.1 -9.3 -2.5 -3.2 -2.6 -3.6 -0.9 -4.3 1 -0.4 4.3 -0.7 7.5 -0.7 4.3 0.1 7 0.8 11.7 3.2 l6.1 3.2 0 -3.7 c0 -2 -0.3 -5.4 -0.6 -7.4 -0.6 -3.5 -0.9 -3.8 -4 -3.8 -8.3 0 -23.7 -9.1 -20.6 -12.2 2.3 -2.4 13 -1.6 18.9 1.3 3.2 1.5 5.3 2.1 5.5 1.5 0.2 -0.6 0.3 -3.8 0.3 -7.1 l0 -6 -5.2 -0.6 c-5.9 -0.8 -13.1 -4.6 -16.3 -8.6 -2 -2.6 -2.1 -2.8 -0.3 -4.1 2.9 -2.2 11.7 -0.9 17.5 2.7 l4.9 3.1 -0.3 -7.6 -0.3 -7.6 -4.2 -0.3 c-7.9 -0.6 -14.2 -5.4 -15.9 -11.9 -0.5 -2.3 -0.3 -2.6 2.2 -2.8 1.6 0 3.6 -0.1 4.4 -0.2 0.8 -0.1 1.9 -1.5 2.4 -3.1 1.5 -5 3.9 -10.5 4.6 -10.5 1 0 7.4 4.9 8.7 6.7 1.1 1.4 1.8 1.5 5.4 0.4 2.2 -0.7 4.4 -0.9 4.7 -0.6 1.3 1.3 0.5 9.1 -1.3 12.9 -1 2.1 -3.3 4.8 -5.1 5.9 -3.3 2.1 -3.4 2.4 -3.4 9.1 l0 7 3.3 -3.2 c4.3 -4.1 13.5 -7.9 14.3 -5.8 1.6 4.1 -6.3 14.4 -13.1 17.3 -4.3 1.7 -4.4 2 -5.1 7.1 -0.3 2.9 -0.4 5.6 -0.1 5.9 0.4 0.3 2.1 -0.7 3.9 -2.2 4.6 -3.9 11.2 -6.5 16.4 -6.5 2.4 0 4.4 0.2 4.4 0.5 0 0.3 -1.1 2.2 -2.4 4.3 -4.2 6.7 -12.4 12.7 -19.1 14.2 l-3 0.6 0.3 6.9 c0.1 3.8 0.4 7 0.6 7.2 0.2 0.2 2.3 -1 4.7 -2.6 4.5 -3.2 14.4 -7.1 17.8 -7.1 3.2 0 3.2 1.5 0.1 5.9 -4.6 6.3 -11.5 10.9 -19.2 12.5 -1.9 0.4 -2.8 1.3 -2.8 2.6 0 2.4 2 12 2.6 12 0.2 0 2.6 -1.7 5.4 -3.8 5.6 -4.2 17.6 -9 19 -7.6 1.2 1.3 -3.4 10.2 -7.5 14.4 -3.1 3.2 -9.5 7.1 -13.7 8.4 -1.5 0.4 -1.5 0.9 -0.1 6.3 0.8 3.2 1.7 6.1 2 6.6 0.2 0.4 2.9 -1.5 5.9 -4.2 6.2 -5.4 15 -10.6 15.8 -9.2 1.1 1.7 -2.4 10.8 -5.8 15.2 -1.9 2.4 -5.2 5.5 -7.5 6.9 -2.3 1.4 -4.1 2.9 -4.1 3.5 0 0.6 2 5.1 4.5 10 4.2 8.5 5.4 12.4 2.2 7.3z"/>
        <path d="M300 181.1 c-1.3 -0.4 -3.2 -2.1 -4.2 -3.7 -3.9 -6.7 3.3 -14.4 10.2 -10.9 5.7 2.9 6.6 8.1 2.1 12.6 -3 3 -3.8 3.2 -8.1 2z"/>
        <path d="M132.7 155.2 c-2.4 -2.6 -2.1 -6.8 0.5 -8.6 3.2 -2.3 5.4 -2 7.7 1 2.6 3.3 2.6 4.9 0.1 7.4 -2.5 2.5 -6.2 2.6 -8.3 0.2z"/>
        <path d="M285.9 138.9 c-0.6 -1.2 -1.4 -5.1 -1.7 -8.7 l-0.7 -6.5 -8.8 -1.8 c-9.4 -2 -10.7 -2.5 -10.7 -4 0 -1.5 4.8 -2.9 12.4 -3.7 l7.1 -0.7 0.7 -7.3 c0.4 -4 1.2 -8.1 1.8 -9.2 2.5 -4.6 4.8 -1 5.8 9.2 l0.7 7.3 7.4 0.7 c7.5 0.8 13.1 3.2 11.4 4.9 -0.5 0.5 -4.9 1.7 -9.9 2.7 l-8.9 1.7 -0.3 3.5 c-0.9 12 -3.6 16.9 -6.3 11.9z"/>
    </g>
</svg>
